<svg xmlns="http://www.w3.org/2000/svg" version="1.1" viewBox="-5.0 -10.0 110.0 135.0">
 <path d="m39.613 72.133c3.9023 5.2852 7.6211 10.328 10.293 14.555 2.6719-4.2344 6.3906-9.2656 10.293-14.547 5.0898-6.8906 10.352-14.016 14.465-20.828 7.1016-11.758 7.9414-24.809 2.2422-34.906-5.1562-9.1445-15-14.387-27-14.387-12.348 0-21.938 5.0352-27.008 14.18-5.7109 10.305-4.4766 24.363 3.2266 36.688 3.9727 6.3516 8.8125 12.906 13.488 19.246zm10.293-62.172c12.184 0 22.098 9.9141 22.098 22.098s-9.9141 22.098-22.098 22.098-22.098-9.9141-22.098-22.098 9.9141-22.098 22.098-22.098zm-13.305 37.191h22.48c0.85156 0 1.5469-0.69141 1.5469-1.5469s-0.69141-1.5469-1.5469-1.5469l-2.0117 0.003906v-4.6641h2.2969c2.9727 0 5.3945-2.418 5.3945-5.3867v-10.664c0-0.50391-0.24219-0.97266-0.65234-1.2617l-2.9766-2.1055c-0.69531-0.49219-1.6602-0.32812-2.1562 0.36719-0.49219 0.69531-0.32812 1.6602 0.36719 2.1562l2.3242 1.6445v9.8633c0 1.2656-1.0312 2.2969-2.3008 2.2969h-2.2969v-16.766c0-2.0117-1.6328-3.6523-3.6445-3.6523h-11.172c-2.0078 0-3.6445 1.6367-3.6445 3.6523v24.52h-2.0039c-0.85547 0-1.5469 0.69141-1.5469 1.5469-0.003906 0.85156 0.6875 1.543 1.543 1.543zm5.0977-27.609c0-0.30469 0.25391-0.55859 0.55469-0.55859h11.172c0.30078 0 0.55469 0.25391 0.55469 0.55859v5.6289h-12.281zm38.543 65.867c0 3.6289-3.3398 6.9102-9.4023 9.2383-5.5977 2.1484-13.004 3.3281-20.859 3.3281s-15.266-1.1836-20.859-3.3281c-6.0664-2.3281-9.4023-5.6094-9.4023-9.2383 0-2.0117 1.0469-4.9844 6.0352-7.6992 2.9688-1.6172 6.8672-2.8945 11.383-3.7344 0.69141 0.9375 1.3789 1.8672 2.0508 2.7852-10.758 1.7148-16.379 5.6055-16.379 8.6523 0 4.4844 11.16 9.4766 27.172 9.4766 16.016 0 27.176-4.9961 27.176-9.4766 0-3.0625-5.6641-6.9648-16.504-8.6719 0.66797-0.91016 1.3516-1.832 2.0391-2.7617 0.003906-0.007813 0.011719-0.015625 0.015625-0.019531 4.5469 0.83594 8.4727 2.1133 11.465 3.7305 5.0156 2.7188 6.0703 5.6992 6.0703 7.7188z"/>
<text x="0.0" y="117.5" font-size="5.0" font-weight="bold" font-family="Arbeit Regular, Helvetica, Arial-Unicode, Arial, Sans-serif" fill="#000000">Created by kakhim</text><text x="0.0" y="122.5" font-size="5.0" font-weight="bold" font-family="Arbeit Regular, Helvetica, Arial-Unicode, Arial, Sans-serif" fill="#000000">from Noun Project</text></svg>