<svg xmlns="http://www.w3.org/2000/svg" version="1.1" viewBox="-5.0 -10.0 110.0 135.0">
 <path d="m40.57 23.441c-0.86328 0-1.5625 0.69922-1.5625 1.5625v21.875c0 0.86328 0.69922 1.5625 1.5625 1.5625h10.938c0.86328 0 1.5625-0.69922 1.5625-1.5625v-9.375h1.5625v3.125c0 2.5703 2.1172 4.6875 4.6875 4.6875 2.5703 0 4.6875-2.1172 4.6875-4.6875v-9.375c0-0.86328-0.69922-1.5625-1.5625-1.5625-0.86328 0-1.5625 0.69922-1.5625 1.5625v9.375c0 0.88281-0.67969 1.5625-1.5625 1.5625-0.88281 0-1.5625-0.67969-1.5625-1.5625v-4.6875c0-0.86328-0.69922-1.5625-1.5625-1.5625h-3.125v-9.375c0-0.86328-0.69922-1.5625-1.5625-1.5625zm1.5625 3.125h7.8125v4.6875h-7.8125z" fill-rule="evenodd"/>
 <path d="m49.945 6.2539c-16.379 0-29.688 13.309-29.688 29.688 0 8.7109 7.2812 19.949 14.375 29.418 1.4922 1.9922 2.9688 3.8672 4.3867 5.625-1.2656 0.375-2.4609 0.80469-3.5391 1.3047-1.9062 0.87891-3.5 1.9375-4.6797 3.2227-0.71484 0.77734-1.2734 1.6641-1.6094 2.6172h-1.1211c-0.86328 0-1.5625 0.69922-1.5625 1.5625 0 0.41406 0.16406 0.8125 0.45703 1.1055 0.29297 0.29297 0.69141 0.45703 1.1055 0.45703h0.91016c0.26172 1.2461 0.91797 2.3945 1.8203 3.375 1.1797 1.2852 2.7773 2.3438 4.6797 3.2227 3.4492 1.5898 7.9375 2.5742 12.902 2.7461v1.5938c0 0.41406 0.16406 0.8125 0.45703 1.1055 0.29297 0.29297 0.69141 0.45703 1.1055 0.45703 0.41406 0 0.8125-0.16406 1.1055-0.45703s0.45703-0.69141 0.45703-1.1055v-1.5938c4.9688-0.17188 9.4531-1.1562 12.902-2.7461 1.9062-0.87891 3.5-1.9375 4.6797-3.2227 0.89844-0.98047 1.5547-2.1289 1.8203-3.375h0.91016c0.41406 0 0.8125-0.16406 1.1055-0.45703s0.45703-0.69141 0.45703-1.1055c0-0.41406-0.16406-0.8125-0.45703-1.1055-0.29297-0.29297-0.69141-0.45703-1.1055-0.45703h-1.1211c-0.33203-0.95312-0.89453-1.8398-1.6094-2.6172-1.1797-1.2852-2.7773-2.3438-4.6797-3.2227-1.0781-0.49609-2.2695-0.92969-3.5352-1.3047 1.418-1.7578 2.8945-3.6328 4.3867-5.625 7.0938-9.4688 14.375-20.711 14.375-29.418 0-16.379-13.309-29.688-29.688-29.688zm0 7.8125c12.062 0 21.875 9.8125 21.875 21.875s-9.8125 21.875-21.875 21.875-21.875-9.8125-21.875-21.875 9.8125-21.875 21.875-21.875zm-8.7461 59.57c0.94141 1.1289 1.8477 2.207 2.668 3.1562-2.0859 0.81641-3.293 2.0156-3.2969 3.2773 0 2.3828 4.1953 4.3164 9.375 4.3164 5.1758 0 9.375-1.9336 9.375-4.3164 0-1.2617-1.2031-2.4648-3.2891-3.2852 0.81641-0.94922 1.7227-2.0234 2.6602-3.1445 1.6484 0.40234 3.1367 0.90234 4.4062 1.4844 1.6289 0.75 2.8945 1.6328 3.6914 2.5 0.15625 0.17188 0.28906 0.33984 0.41016 0.50391h-0.070313 0.003906c-0.86328 0-1.5625 0.69922-1.5625 1.5625 0 0.41406 0.16406 0.8125 0.45703 1.1055 0.29297 0.29297 0.69141 0.45703 1.1055 0.45703h0.52344c-0.17969 0.40625-0.46484 0.82422-0.86328 1.2617-0.79688 0.86719-2.0586 1.75-3.6914 2.5-2.9297 1.3477-7.0234 2.2773-11.594 2.4531-0.019531-0.85156-0.71484-1.5273-1.5625-1.5273-0.84766 0-1.5391 0.67969-1.5586 1.5273-4.5742-0.17578-8.668-1.1055-11.598-2.4531-1.6289-0.75-2.8945-1.6328-3.6914-2.5-0.39844-0.4375-0.68359-0.85547-0.86328-1.2617h0.52344c0.41406 0 0.8125-0.16406 1.1055-0.45703s0.45703-0.69141 0.45703-1.1055c0-0.41406-0.16406-0.8125-0.45703-1.1055-0.29297-0.29297-0.69141-0.45703-1.1055-0.45703h-0.070312c0.12109-0.16406 0.25391-0.33203 0.41016-0.50391 0.79688-0.86719 2.0586-1.75 3.6914-2.5 1.2695-0.58594 2.7617-1.0898 4.4102-1.4883z" fill-rule="evenodd"/>
<text x="0.0" y="117.5" font-size="5.0" font-weight="bold" font-family="Arbeit Regular, Helvetica, Arial-Unicode, Arial, Sans-serif" fill="#000000">Created by Sri Wahyuni</text><text x="0.0" y="122.5" font-size="5.0" font-weight="bold" font-family="Arbeit Regular, Helvetica, Arial-Unicode, Arial, Sans-serif" fill="#000000">from Noun Project</text></svg>