<svg xmlns="http://www.w3.org/2000/svg" version="1.1" viewBox="-5.0 -10.0 110.0 135.0">
 <path d="m56.562 41.668h-6.293l3.5625-13.293c0.042969-0.16797 0-0.33203-0.082031-0.45703-0.10547-0.125-0.25-0.20703-0.41797-0.20703h-14.645c-0.25 0-0.48047 0.1875-0.51953 0.45703l-2.6875 19.543c-0.019531 0.14453 0.019531 0.29297 0.125 0.41797 0.10547 0.10547 0.25 0.1875 0.39453 0.1875h6.543l-2.6055 18.938c-0.042969 0.25 0.10547 0.48047 0.33203 0.5625 0.0625 0.019532 0.125 0.042969 0.1875 0.042969 0.16797 0 0.33203-0.082031 0.4375-0.25l16.082-25.125c0.10547-0.16797 0.10547-0.35547 0.019532-0.51953-0.078125-0.19531-0.24609-0.29688-0.43359-0.29688zm-15.25 23.375 2.3555-17.188c0.019531-0.14453-0.019531-0.29297-0.125-0.41797-0.10547-0.10547-0.25-0.1875-0.39453-0.1875h-6.543l2.543-18.5h13.5l-3.5625 13.293c-0.042969 0.16797 0 0.33203 0.082031 0.45703 0.10547 0.125 0.25 0.20703 0.41797 0.20703h6.0195z"/>
 <path d="m86.02 22.23v5.957h-3.9805v-5.957c0-0.29297-0.23047-0.51953-0.51953-0.51953h-2.5195c-0.29297 0-0.51953 0.23047-0.51953 0.51953v5.957h-0.8125c-0.29297 0-0.51953 0.23047-0.51953 0.51953v8.043c0 3.625 2.8125 6.582 6.375 6.8555v27.332c0 1.793-1.3945 3.1875-3.1875 3.1875-1.75 0-3.1875-1.4375-3.1875-3.1875v-7.793c0-4.3125-3.375-7.8125-7.625-8.082l-0.003907-40.582h3.8555c0.29297 0 0.51953-0.23047 0.51953-0.51953v-4.918c0-0.29297-0.23047-0.51953-0.51953-0.51953l-57.605-0.003907c-0.29297 0-0.51953 0.23047-0.51953 0.51953v4.918c0 0.29297 0.23047 0.51953 0.51953 0.51953h3.8555v62.645h-4.582c-0.29297 0-0.51953 0.23047-0.51953 0.51953v8.7305l-4.9609 0.003906c-0.29297 0-0.51953 0.23047-0.51953 0.51953v4.0625c0 0.29297 0.23047 0.51953 0.51953 0.51953l70.02 0.003907c0.29297 0 0.51953-0.23047 0.51953-0.51953v-4.0625c0-0.29297-0.23047-0.51953-0.51953-0.51953h-4.957v-8.7305c0-0.29297-0.23047-0.51953-0.51953-0.51953h-4.582l-0.003907-21.066c3.668 0.26953 6.582 3.3125 6.582 7.043v7.793c0 2.332 1.8945 4.2305 4.2305 4.2305 2.332 0 4.2305-1.8945 4.2305-4.2305v-27.316c3.5625-0.26953 6.375-3.2305 6.375-6.8555v-1.4805-0.019532-0.019531-2.5-0.019531-0.019531-4c0-0.29297-0.23047-0.51953-0.51953-0.51953h-0.83203v-5.957c0-0.29297-0.23047-0.51953-0.51953-0.51953h-2.5195c-0.27734 0.035156-0.52734 0.26562-0.52734 0.55859zm-6.957 65.188v3.0195h-68.98v-3.0195zm-5.457-9.25v8.207h-58.043v-8.207zm-52.938-1.043v-62.645h47.832v62.645zm48.332-63.688h-52.707v-3.875h56.582v3.8945h-3.875zm10.52 9.3125h1.4805v5.4375h-1.4805zm10.398 13.98c0 3.2305-2.625 5.8555-5.8555 5.8555s-5.8555-2.625-5.8555-5.8555v-0.98047h11.73v0.98047zm0-2.0234h-11.73v-1.4805h11.73zm0-5.5v2.9805h-11.73v-2.9805zm-2.8555-6.457h1.4805v5.4375h-1.4805z"/>
 <path d="m57.043 17.23h-32.605c-0.29297 0-0.51953 0.23047-0.51953 0.51953v9.3125c0 0.29297 0.23047 0.51953 0.51953 0.51953 0.29297 0 0.51953-0.23047 0.51953-0.51953v-8.793h32.082c0.29297 0 0.51953-0.23047 0.51953-0.51953 0.003906-0.29297-0.24609-0.51953-0.51562-0.51953z"/>
 <path d="m24.438 29.332c-0.29297 0-0.51953 0.23047-0.51953 0.51953v1.2695c0 0.29297 0.23047 0.51953 0.51953 0.51953 0.29297 0 0.51953-0.23047 0.51953-0.51953v-1.2695c0-0.28906-0.22656-0.51953-0.51953-0.51953z"/>
<text x="0.0" y="117.5" font-size="5.0" font-weight="bold" font-family="Arbeit Regular, Helvetica, Arial-Unicode, Arial, Sans-serif" fill="#000000">Created by Buildhouse10</text><text x="0.0" y="122.5" font-size="5.0" font-weight="bold" font-family="Arbeit Regular, Helvetica, Arial-Unicode, Arial, Sans-serif" fill="#000000">from Noun Project</text></svg>