<svg xmlns="http://www.w3.org/2000/svg" version="1.1" viewBox="-5.0 -10.0 110.0 135.0">
 <path d="m50.879 12.59h-29.809c-2.0781 0-3.7695 1.6914-3.7695 3.7695v17.359c0 2.0781 1.6914 3.7695 3.7695 3.7695h5.0508c0.011718 0 0.019531 0.003907 0.03125 0.003907 0.011718 0 0.019531-0.003907 0.03125-0.003907h19.586c0.011719 0 0.019531 0.003907 0.03125 0.003907s0.019531-0.003907 0.03125-0.003907h5.0508c2.0781 0 3.7695-1.6914 3.7695-3.7695l-0.003906-17.359c0-2.0781-1.6914-3.7695-3.7695-3.7695zm-6.6094 22.098h-16.59c0.67187-3.9844 4.1289-7.0273 8.2969-7.0273 4.1641 0 7.625 3.0469 8.293 7.0273zm7.5781-0.96875c0 0.53516-0.43359 0.96875-0.96875 0.96875h-3.7812c-0.34766-2.7578-1.6953-5.2031-3.668-6.9688l5.3555-5.3555c0.54688-0.54688 0.54688-1.4336 0-1.9805-0.54688-0.54687-1.4336-0.54687-1.9805 0l-5.7188 5.7188c-1.5352-0.78906-3.2695-1.2461-5.1133-1.2461-5.7109 0-10.434 4.2969-11.125 9.8281h-3.7773c-0.53516 0-0.96875-0.43359-0.96875-0.96875v-17.355c0-0.53516 0.43359-0.96875 0.96875-0.96875h29.809c0.53516 0 0.96875 0.43359 0.96875 0.96875zm41.316 2.4414-1.9844-1.3086v-8.5938c0-0.77344-0.625-1.3984-1.3984-1.3984h-2.4805v-8.9961l3.7891-3.7891c0.54688-0.54688 0.54688-1.4336 0-1.9805s-1.4336-0.54688-1.9805 0l-4.1992 4.1992c-0.26172 0.26172-0.41016 0.61719-0.41016 0.98828v9.5781h-3.4336c-0.77344 0-1.3984 0.625-1.3984 1.3984l-0.003907 17.43c0 0.77344 0.625 1.3984 1.3984 1.3984h3.4336v19.188c0 1.5742-0.61328 3.0469-1.7344 4.1602-1.1055 1.1133-2.582 1.7266-4.1562 1.7266-3.2461 0-5.8906-2.6406-5.8906-5.8906v-25.039c0-4.207-2.9727-7.7109-6.9727-8.5078v-4.4609c0-0.77344-0.625-1.3984-1.3984-1.3984h-3.6719v-10.82c0-4.3359-3.5273-7.8594-7.8594-7.8594h-33.672c-4.3359 0-7.8594 3.5273-7.8594 7.8594v64.223c-2.8125 0.10547-5.0703 2.418-5.0703 5.2578v8.8906c0 0.77344 0.625 1.3984 1.3984 1.3984l56.734 0.003906c0.77344 0 1.3984-0.625 1.3984-1.3984v-8.8906c0-2.8398-2.2578-5.1523-5.0703-5.2578v-38.906h3.6719c0.77344 0 1.3984-0.625 1.3984-1.3984v-4.3633c2.4297 0.73438 4.1758 2.9727 4.1758 5.6289v25.043c0 4.793 3.8984 8.6914 8.6914 8.6914 2.3242 0 4.5078-0.90625 6.1367-2.5469 1.6484-1.6367 2.5547-3.8164 2.5547-6.1406l-0.003906-19.188h5.0938c0.77344 0 1.3984-0.625 1.3984-1.3984v-6.3594c0.003907-0.47266-0.23437-0.91406-0.625-1.1719zm-79.086-22.117c0-2.7891 2.2695-5.0625 5.0625-5.0625h33.672c2.7891 0 5.0625 2.2695 5.0625 5.0625v64.211l-43.797 0.003906zm48.863 69.48v7.4922h-53.934v-7.4922c0-1.3594 1.1055-2.4648 2.4648-2.4648h49c1.3633 0 2.4688 1.1055 2.4688 2.4648zm0-46.961h-2.2695v-8.9023h2.2695zm21.727 5.7266h-2.2031v-14.629h5.9141v7.9453 0.007812c0 0.082031 0.011719 0.16406 0.023438 0.24219 0.007812 0.046875 0.023437 0.089843 0.035156 0.13672 0.015625 0.050781 0.027344 0.10547 0.046875 0.15625 0.015625 0.042968 0.042969 0.078124 0.0625 0.11719 0.023437 0.039063 0.039063 0.082031 0.066406 0.12109 0.03125 0.042969 0.066407 0.082031 0.10156 0.12109 0.03125 0.039063 0.0625 0.074219 0.10156 0.10938 0.058594 0.054687 0.12109 0.10547 0.1875 0.15234 0 0 0.003906 0.003907 0.003906 0.003907l1.9844 1.3086v4.2031h-1.2148zm-48.691 3.8164c-0.44531 0-0.86328 0.21094-1.125 0.56641-0.71094 0.96484-6.9609 9.5352-6.9609 13.574 0 4.457 3.6289 8.0859 8.0859 8.0859 4.457 0 8.0859-3.6289 8.0859-8.0859 0-4.0391-6.2461-12.609-6.9609-13.574-0.26562-0.35547-0.68359-0.56641-1.125-0.56641zm0 19.426c-2.9141 0-5.2852-2.3711-5.2852-5.2852 0-2.0195 2.8984-6.8711 5.2852-10.332 2.3906 3.457 5.2852 8.3086 5.2852 10.332 0 2.9141-2.3711 5.2852-5.2852 5.2852z"/>
<text x="0.0" y="117.5" font-size="5.0" font-weight="bold" font-family="Arbeit Regular, Helvetica, Arial-Unicode, Arial, Sans-serif" fill="#000000">Created by Gabriella</text><text x="0.0" y="122.5" font-size="5.0" font-weight="bold" font-family="Arbeit Regular, Helvetica, Arial-Unicode, Arial, Sans-serif" fill="#000000">from Noun Project</text></svg>